<?xml version="1.0" encoding="UTF-8" standalone="no"?>
<!-- Created with Inkscape (http://www.inkscape.org/) -->

<svg
   width="48"
   height="48"
   viewBox="0 0 12.700001 12.699999"
   version="1.1"
   id="svg4552"
   inkscape:version="1.1.2 (b8e25be833, 2022-02-05)"
   sodipodi:docname="Mine.svg"
   xmlns:inkscape="http://www.inkscape.org/namespaces/inkscape"
   xmlns:sodipodi="http://sodipodi.sourceforge.net/DTD/sodipodi-0.dtd"
   xmlns="http://www.w3.org/2000/svg"
   xmlns:svg="http://www.w3.org/2000/svg">
  <sodipodi:namedview
     id="namedview4554"
     pagecolor="#ffffff"
     bordercolor="#666666"
     borderopacity="1.0"
     inkscape:pageshadow="2"
     inkscape:pageopacity="0"
     inkscape:pagecheckerboard="true"
     inkscape:document-units="mm"
     showgrid="false"
     fit-margin-top="0"
     fit-margin-left="0"
     fit-margin-right="0"
     fit-margin-bottom="0"
     units="px"
     inkscape:zoom="11.844781"
     inkscape:cx="22.33051"
     inkscape:cy="27.775946"
     inkscape:window-width="1920"
     inkscape:window-height="1017"
     inkscape:window-x="1912"
     inkscape:window-y="-8"
     inkscape:window-maximized="1"
     inkscape:current-layer="layer1" />
  <defs
     id="defs4549" />
  <g
     inkscape:label="Layer 1"
     inkscape:groupmode="layer"
     id="layer1"
     transform="translate(-11.382116,-5.3305108)">
    <path
       style="fill:#ffffff;fill-opacity:1;stroke:#ffffff;stroke-width:0.0772341;stroke-linecap:butt;stroke-linejoin:miter;stroke-miterlimit:4;stroke-dasharray:none;stroke-opacity:1"
       d="m 12.747061,6.9823844 2.396483,0.5564046 c 0,0 0.05755,0.6348602 -0.581999,1.3388507 -0.639542,0.7039902 -1.164014,0.6085652 -1.164014,0.6085652 z"
       id="path4832"
       sodipodi:nodetypes="cczcc" />
    <path
       style="fill:#ffffff;fill-opacity:1;stroke:#ffffff;stroke-width:0.0772341;stroke-linecap:butt;stroke-linejoin:miter;stroke-miterlimit:4;stroke-dasharray:none;stroke-opacity:1"
       d="m 17.505796,5.8695673 -0.479297,0.7650642 1.027072,-0.034795 z"
       id="path4834" />
    <path
       style="fill:#ffffff;fill-opacity:1;stroke:#ffffff;stroke-width:0.0772341;stroke-linecap:butt;stroke-linejoin:miter;stroke-miterlimit:4;stroke-dasharray:none;stroke-opacity:1"
       d="M 19.902287,7.4518489 22.31589,6.9823766 21.733891,9.3471042 c 0,0 -0.580789,-0.015023 -1.164014,-0.5390151 -0.703331,-0.6318789 -0.67179,-1.3599688 -0.66759,-1.3562402 z"
       id="path4836"
       sodipodi:nodetypes="cccsc" />
    <path
       style="fill:#ffffff;fill-opacity:1;stroke:#ffffff;stroke-width:0.0772341;stroke-linecap:butt;stroke-linejoin:miter;stroke-miterlimit:4;stroke-dasharray:none;stroke-opacity:1"
       d="m 22.52131,11.138046 0.821652,0.608565 -0.80454,0.573787 z"
       id="path4838"
       sodipodi:nodetypes="cccc" />
    <path
       style="fill:#ffffff;fill-opacity:1;stroke:#ffffff;stroke-width:0.0772341;stroke-linecap:butt;stroke-linejoin:miter;stroke-miterlimit:4;stroke-dasharray:none;stroke-opacity:0.7751"
       d="m 19.885167,15.867485 c 0,0 -0.01602,-0.421367 0.633358,-1.112809 0.679323,-0.723279 1.146895,-0.469465 1.146895,-0.469465 l 0.496416,2.121297 z"
       id="path4840"
       sodipodi:nodetypes="csccc" />
    <path
       style="fill:#ffffff;fill-opacity:1;stroke:#ffffff;stroke-width:0.0772341;stroke-linecap:butt;stroke-linejoin:miter;stroke-miterlimit:4;stroke-dasharray:none;stroke-opacity:1"
       d="m 17.009387,16.910752 1.027065,0.01736 -0.513536,0.730277 z"
       id="path4842"
       sodipodi:nodetypes="cccc" />
    <path
       style="fill:#ffffff;fill-opacity:1;stroke:none;stroke-width:0.204348px;stroke-linecap:butt;stroke-linejoin:miter;stroke-opacity:1"
       d="m 12.849764,16.667321 0.513528,-2.329941 c 0,0 0.521383,-0.117158 1.215365,0.556397 0.69399,0.673563 0.582007,1.060648 0.582007,1.060648 z"
       id="path4844"
       sodipodi:nodetypes="cczcc" />
    <path
       style="fill:#ffffff;fill-opacity:1;stroke:none;stroke-width:0.204348px;stroke-linecap:butt;stroke-linejoin:miter;stroke-opacity:1"
       d="m 12.438938,11.259749 v 1.112818 l -0.75318,-0.521634 z m 3.954211,0.799836 c -0.06475,-0.53689 0.270826,-1.217956 1.027064,-1.304071 0.756238,-0.08611 1.238891,0.567598 1.266716,1.112809 0.02782,0.545211 -0.40927,1.121893 -1.061303,1.147588 -0.652034,0.02569 -1.167746,-0.419436 -1.232477,-0.956326 z"
       id="path4846"
       sodipodi:nodetypes="cccczzzzz" />
    <g
       id="g16604"
       transform="matrix(0.76632289,0,0,0.77840606,-94.786787,-85.102772)">
      <path
         id="path15094"
         style="fill:#ffffff;fill-opacity:1;fill-rule:evenodd;stroke:none;stroke-width:0.264583px;stroke-linecap:butt;stroke-linejoin:miter;stroke-opacity:1"
         d="m 144.65794,124.53181 c 0.0184,-0.9714 0.95425,-1.83168 1.87636,-1.85401 0.92211,-0.0223 1.87286,0.78138 1.94336,1.74232 0.0705,0.96094 -0.88644,2.02458 -1.89869,2.05505 -1.01225,0.0305 -1.93941,-0.97196 -1.92103,-1.94336 z m -0.69246,-5.69607 c 0.87861,-0.5361 1.57852,-0.51376 2.45713,-0.69246 1.17644,-0.007 1.92847,0.18615 2.79219,0.51376 0.28294,0.75948 0.25316,1.29557 0.84883,2.27843 0.9754,0.76693 2.02527,0.91212 2.39012,1.04987 0.36484,0.13775 0.37973,2.5018 0.37973,2.5018 -0.20104,0.90095 -0.067,1.64553 -0.55843,2.61349 -0.7148,0.2606 -1.22858,0.14147 -2.09974,0.98285 -0.70735,0.7148 -0.78926,1.40726 -1.13921,2.16674 -0.66268,0.31272 -1.169,0.53611 -2.52414,0.46909 -0.75948,-0.0968 -1.40727,0.14147 -2.6135,-0.55844 -0.12969,-0.89012 0.0157,-0.84691 -0.82649,-1.9657 -1.35514,-0.87117 -1.3477,-0.62545 -2.07739,-0.91584 -0.40207,-0.64035 -0.64779,-1.30302 -0.69246,-2.68051 0,0 0.10052,-2.23374 0.51376,-2.56881 0.41325,-0.33507 1.38493,-0.32759 2.18908,-1.00519 0.69991,-0.58077 0.7297,-1.49662 0.96052,-2.18908 z" />
    </g>
  </g>
</svg>
